<?xml version="1.0" encoding="utf-8"?>
<!-- Generator: Adobe Illustrator 24.2.3, SVG Export Plug-In . SVG Version: 6.00 Build 0)  -->
<svg version="1.1" xmlns="http://www.w3.org/2000/svg" xmlns:xlink="http://www.w3.org/1999/xlink" x="0px" y="0px"
	 viewBox="1350 100 2400 2750" style="enable-background:new 0 0 5000 3000;" xml:space="preserve">
<style type="text/css">
	.st0{display:none;}
	.st1{display:inline;}
	.st2{fill:#CC0000;}
	.st3{fill:#FFFFFF;}
	.st4{display:none;fill:none;stroke:#000000;stroke-miterlimit:10;}
	.st5{fill:#FFFFFF;stroke:#000000;stroke-miterlimit:10;}
	.st6{display:inline;fill:none;stroke:#000000;stroke-miterlimit:10;}
	.st7{display:inline;stroke:#000000;stroke-miterlimit:10;}
	.st8{display:inline;fill:#FFFFFF;stroke:#000000;stroke-miterlimit:10;}
	.st9{clip-path:url(#SVGID_2_);}
	.st10{fill:#FFFFFF;stroke:#FFFFFF;stroke-width:5;stroke-miterlimit:10;}
	.st11{fill:none;stroke:#000000;stroke-width:2;stroke-miterlimit:10;}
	.st12{display:inline;fill:#FFFFFF;}
</style>
<g id="Layer_3">
	<g>
		<g>
			<path class="st2" d="M3673.57,2039.39V914.1c0-69.13-36.05-133.01-94.58-167.57l-952.72-562.66
				c-58.53-34.57-130.64-34.57-189.17,0l-952.72,562.66c-58.53,34.57-94.58,98.44-94.58,167.57v1125.29
				c0,69.13,36.05,133.01,94.58,167.57l952.72,562.66c58.53,34.57,130.64,34.57,189.17,0l952.72-562.66
				C3637.52,2172.4,3673.57,2108.52,3673.57,2039.39z"/>
		</g>
	</g>
	<g id="Layer_4">
		<g>
			<g>
				<polygon class="st3" points="2256,1499.58 2256,1113.46 2590.41,1306.52 2924.82,1499.58 2590.41,1692.66 2256,1885.72 				"/>
			</g>
		</g>
	</g>
	<path class="st4" d="M702.37,362.97c0.03-0.03,0.06-0.06,0.1-0.1"/>
	<path class="st4" d="M702.37,362.97c0.04-0.04,0.09-0.09,0.13-0.13"/>
	<path class="st5" d="M3035.6,2018.16c-435.18,432.48-1249.6,87.58-1228.03-535.98c-20.54-609.03,760.5-960.21,1204.35-557.06
		c-0.12,0.12-0.25,0.25-0.37,0.37l-0.03,0.04c12.11-12.15,24.2-24.31,36.29-36.48c-474.67-440.08-1321.56-64.49-1299.24,593.14
		c-23.33,672.24,857.14,1041.35,1322.81,571.77l-36.37-36.37"/>
</g> 
</svg>
